<mxfile host="app.diagrams.net" modified="2021-11-12T22:46:04.979Z" agent="5.0 (Windows NT 10.0; Win64; x64) AppleWebKit/537.36 (KHTML, like Gecko) Chrome/95.0.4638.69 Safari/537.36" etag="fY9e98AqwJOhtBJ2XA9M" version="15.7.3" type="github">
  <diagram id="C5RBs43oDa-KdzZeNtuy" name="Page-1">
    <mxGraphModel dx="942" dy="808" grid="1" gridSize="10" guides="1" tooltips="1" connect="1" arrows="1" fold="1" page="1" pageScale="1" pageWidth="827" pageHeight="1169" math="0" shadow="0">
      <root>
        <mxCell id="WIyWlLk6GJQsqaUBKTNV-0" />
        <mxCell id="WIyWlLk6GJQsqaUBKTNV-1" parent="WIyWlLk6GJQsqaUBKTNV-0" />
        <mxCell id="ATMze5lYALbE95e457CL-0" value="user input" style="rounded=1;whiteSpace=wrap;html=1;fontColor=default;" vertex="1" parent="WIyWlLk6GJQsqaUBKTNV-1">
          <mxGeometry x="270" y="250" width="90" height="30" as="geometry" />
        </mxCell>
        <mxCell id="ATMze5lYALbE95e457CL-1" value="List with words" style="rounded=1;whiteSpace=wrap;html=1;fontColor=default;" vertex="1" parent="WIyWlLk6GJQsqaUBKTNV-1">
          <mxGeometry x="260" y="40" width="110" height="30" as="geometry" />
        </mxCell>
        <mxCell id="ATMze5lYALbE95e457CL-2" value="" style="endArrow=classic;html=1;rounded=0;fontColor=default;exitX=0.5;exitY=1;exitDx=0;exitDy=0;" edge="1" parent="WIyWlLk6GJQsqaUBKTNV-1" source="ATMze5lYALbE95e457CL-1">
          <mxGeometry width="50" height="50" relative="1" as="geometry">
            <mxPoint x="310" y="140" as="sourcePoint" />
            <mxPoint x="315" y="130" as="targetPoint" />
          </mxGeometry>
        </mxCell>
        <mxCell id="ATMze5lYALbE95e457CL-3" value="pick one random word" style="rounded=1;whiteSpace=wrap;html=1;fontColor=default;" vertex="1" parent="WIyWlLk6GJQsqaUBKTNV-1">
          <mxGeometry x="255" y="130" width="120" height="40" as="geometry" />
        </mxCell>
      </root>
    </mxGraphModel>
  </diagram>
</mxfile>
